<?xml version="1.0" encoding="UTF-8" standalone="no"?>
<!-- Created with Inkscape (http://www.inkscape.org/) -->

<svg
   xmlns:dc="http://purl.org/dc/elements/1.1/"
   xmlns:cc="http://creativecommons.org/ns#"
   xmlns:rdf="http://www.w3.org/1999/02/22-rdf-syntax-ns#"
   xmlns:svg="http://www.w3.org/2000/svg"
   xmlns="http://www.w3.org/2000/svg"
   xmlns:sodipodi="http://sodipodi.sourceforge.net/DTD/sodipodi-0.dtd"
   xmlns:inkscape="http://www.inkscape.org/namespaces/inkscape"
   width="400"
   height="400"
   id="svg2"
   version="1.1"
   inkscape:version="0.91 r13725"
   sodipodi:docname="path.svg"
   inkscape:export-filename="/home/yoo2001818/git/AheuiChem/src/html/img/path.png"
   inkscape:export-xdpi="90"
   inkscape:export-ydpi="90">
  <defs
     id="defs4" />
  <sodipodi:namedview
     id="base"
     pagecolor="#ffffff"
     bordercolor="#666666"
     borderopacity="1.0"
     inkscape:pageopacity="0.0"
     inkscape:pageshadow="2"
     inkscape:zoom="1.979899"
     inkscape:cx="174.36328"
     inkscape:cy="224.6621"
     inkscape:document-units="px"
     inkscape:current-layer="layer2"
     showgrid="false"
     inkscape:window-width="1920"
     inkscape:window-height="1019"
     inkscape:window-x="0"
     inkscape:window-y="26"
     inkscape:window-maximized="1"
     inkscape:snap-page="true"
     inkscape:snap-bbox="true"
     inkscape:bbox-nodes="true"
     inkscape:snap-object-midpoints="true"
     inkscape:object-nodes="true"
     inkscape:snap-bbox-edge-midpoints="true"
     inkscape:bbox-paths="false"
     inkscape:object-paths="false"
     inkscape:snap-center="false" />
  <metadata
     id="metadata7">
    <rdf:RDF>
      <cc:Work
         rdf:about="">
        <dc:format>image/svg+xml</dc:format>
        <dc:type
           rdf:resource="http://purl.org/dc/dcmitype/StillImage" />
        <dc:title></dc:title>
      </cc:Work>
    </rdf:RDF>
  </metadata>
  <g
     inkscape:label="Background"
     inkscape:groupmode="layer"
     id="layer1"
     transform="translate(0,-652.36218)"
     sodipodi:insensitive="true"
     style="display:none">
    <rect
       style="opacity:0.98999999;fill:#c8c8c8;fill-opacity:1;stroke:none;stroke-width:4;stroke-linecap:butt;stroke-linejoin:miter;stroke-miterlimit:4;stroke-dasharray:none;stroke-opacity:1"
       id="rect4135"
       width="100"
       height="100"
       x="0"
       y="952.36218" />
    <rect
       y="952.36218"
       x="100"
       height="100"
       width="100"
       id="rect4137"
       style="opacity:0.98999999;fill:#acacac;fill-opacity:1;stroke:none;stroke-width:4;stroke-linecap:butt;stroke-linejoin:miter;stroke-miterlimit:4;stroke-dasharray:none;stroke-opacity:1" />
    <rect
       style="opacity:0.98999999;fill:#c8c8c8;fill-opacity:1;stroke:none;stroke-width:4;stroke-linecap:butt;stroke-linejoin:miter;stroke-miterlimit:4;stroke-dasharray:none;stroke-opacity:1"
       id="rect4139"
       width="100"
       height="100"
       x="200"
       y="952.36218" />
    <rect
       y="952.36218"
       x="300"
       height="100"
       width="100"
       id="rect4141"
       style="opacity:0.98999999;fill:#acacac;fill-opacity:1;stroke:none;stroke-width:4;stroke-linecap:butt;stroke-linejoin:miter;stroke-miterlimit:4;stroke-dasharray:none;stroke-opacity:1" />
    <rect
       y="852.36218"
       x="-400"
       height="100"
       width="100"
       id="rect4143"
       style="opacity:0.98999999;fill:#c8c8c8;fill-opacity:1;stroke:none;stroke-width:4;stroke-linecap:butt;stroke-linejoin:miter;stroke-miterlimit:4;stroke-dasharray:none;stroke-opacity:1"
       transform="scale(-1,1)" />
    <rect
       style="opacity:0.98999999;fill:#acacac;fill-opacity:1;stroke:none;stroke-width:4;stroke-linecap:butt;stroke-linejoin:miter;stroke-miterlimit:4;stroke-dasharray:none;stroke-opacity:1"
       id="rect4145"
       width="100"
       height="100"
       x="-300"
       y="852.36218"
       transform="scale(-1,1)" />
    <rect
       y="852.36218"
       x="-200"
       height="100"
       width="100"
       id="rect4147"
       style="opacity:0.98999999;fill:#c8c8c8;fill-opacity:1;stroke:none;stroke-width:4;stroke-linecap:butt;stroke-linejoin:miter;stroke-miterlimit:4;stroke-dasharray:none;stroke-opacity:1"
       transform="scale(-1,1)" />
    <rect
       style="opacity:0.98999999;fill:#acacac;fill-opacity:1;stroke:none;stroke-width:4;stroke-linecap:butt;stroke-linejoin:miter;stroke-miterlimit:4;stroke-dasharray:none;stroke-opacity:1"
       id="rect4149"
       width="100"
       height="100"
       x="-100"
       y="852.36218"
       transform="scale(-1,1)" />
    <rect
       transform="scale(-1,1)"
       style="opacity:0.98999999;fill:#c8c8c8;fill-opacity:1;stroke:none;stroke-width:4;stroke-linecap:butt;stroke-linejoin:miter;stroke-miterlimit:4;stroke-dasharray:none;stroke-opacity:1"
       id="rect4151"
       width="100"
       height="100"
       x="-400"
       y="852.36218" />
    <rect
       transform="scale(-1,1)"
       y="852.36218"
       x="-300"
       height="100"
       width="100"
       id="rect4153"
       style="opacity:0.98999999;fill:#acacac;fill-opacity:1;stroke:none;stroke-width:4;stroke-linecap:butt;stroke-linejoin:miter;stroke-miterlimit:4;stroke-dasharray:none;stroke-opacity:1" />
    <rect
       transform="scale(-1,1)"
       style="opacity:0.98999999;fill:#c8c8c8;fill-opacity:1;stroke:none;stroke-width:4;stroke-linecap:butt;stroke-linejoin:miter;stroke-miterlimit:4;stroke-dasharray:none;stroke-opacity:1"
       id="rect4155"
       width="100"
       height="100"
       x="-200"
       y="852.36218" />
    <rect
       transform="scale(-1,1)"
       y="852.36218"
       x="-100"
       height="100"
       width="100"
       id="rect4157"
       style="opacity:0.98999999;fill:#acacac;fill-opacity:1;stroke:none;stroke-width:4;stroke-linecap:butt;stroke-linejoin:miter;stroke-miterlimit:4;stroke-dasharray:none;stroke-opacity:1" />
    <rect
       y="752.36218"
       x="0"
       height="100"
       width="100"
       id="rect4159"
       style="opacity:0.98999999;fill:#c8c8c8;fill-opacity:1;stroke:none;stroke-width:4;stroke-linecap:butt;stroke-linejoin:miter;stroke-miterlimit:4;stroke-dasharray:none;stroke-opacity:1" />
    <rect
       style="opacity:0.98999999;fill:#acacac;fill-opacity:1;stroke:none;stroke-width:4;stroke-linecap:butt;stroke-linejoin:miter;stroke-miterlimit:4;stroke-dasharray:none;stroke-opacity:1"
       id="rect4161"
       width="100"
       height="100"
       x="100"
       y="752.36218" />
    <rect
       y="752.36218"
       x="200"
       height="100"
       width="100"
       id="rect4163"
       style="opacity:0.98999999;fill:#c8c8c8;fill-opacity:1;stroke:none;stroke-width:4;stroke-linecap:butt;stroke-linejoin:miter;stroke-miterlimit:4;stroke-dasharray:none;stroke-opacity:1" />
    <rect
       style="opacity:0.98999999;fill:#acacac;fill-opacity:1;stroke:none;stroke-width:4;stroke-linecap:butt;stroke-linejoin:miter;stroke-miterlimit:4;stroke-dasharray:none;stroke-opacity:1"
       id="rect4165"
       width="100"
       height="100"
       x="300"
       y="752.36218" />
    <rect
       transform="scale(-1,1)"
       style="opacity:0.98999999;fill:#c8c8c8;fill-opacity:1;stroke:none;stroke-width:4;stroke-linecap:butt;stroke-linejoin:miter;stroke-miterlimit:4;stroke-dasharray:none;stroke-opacity:1"
       id="rect4167"
       width="100"
       height="100"
       x="-400"
       y="652.36218" />
    <rect
       transform="scale(-1,1)"
       y="652.36218"
       x="-300"
       height="100"
       width="100"
       id="rect4169"
       style="opacity:0.98999999;fill:#acacac;fill-opacity:1;stroke:none;stroke-width:4;stroke-linecap:butt;stroke-linejoin:miter;stroke-miterlimit:4;stroke-dasharray:none;stroke-opacity:1" />
    <rect
       transform="scale(-1,1)"
       style="opacity:0.98999999;fill:#c8c8c8;fill-opacity:1;stroke:none;stroke-width:4;stroke-linecap:butt;stroke-linejoin:miter;stroke-miterlimit:4;stroke-dasharray:none;stroke-opacity:1"
       id="rect4171"
       width="100"
       height="100"
       x="-200"
       y="652.36218" />
    <rect
       transform="scale(-1,1)"
       y="652.36218"
       x="-100"
       height="100"
       width="100"
       id="rect4173"
       style="opacity:0.98999999;fill:#acacac;fill-opacity:1;stroke:none;stroke-width:4;stroke-linecap:butt;stroke-linejoin:miter;stroke-miterlimit:4;stroke-dasharray:none;stroke-opacity:1" />
    <rect
       y="652.36218"
       x="-400"
       height="100"
       width="100"
       id="rect4175"
       style="opacity:0.98999999;fill:#c8c8c8;fill-opacity:1;stroke:none;stroke-width:4;stroke-linecap:butt;stroke-linejoin:miter;stroke-miterlimit:4;stroke-dasharray:none;stroke-opacity:1"
       transform="scale(-1,1)" />
    <rect
       style="opacity:0.98999999;fill:#acacac;fill-opacity:1;stroke:none;stroke-width:4;stroke-linecap:butt;stroke-linejoin:miter;stroke-miterlimit:4;stroke-dasharray:none;stroke-opacity:1"
       id="rect4177"
       width="100"
       height="100"
       x="-300"
       y="652.36218"
       transform="scale(-1,1)" />
    <rect
       y="652.36218"
       x="-200"
       height="100"
       width="100"
       id="rect4179"
       style="opacity:0.98999999;fill:#c8c8c8;fill-opacity:1;stroke:none;stroke-width:4;stroke-linecap:butt;stroke-linejoin:miter;stroke-miterlimit:4;stroke-dasharray:none;stroke-opacity:1"
       transform="scale(-1,1)" />
    <rect
       style="opacity:0.98999999;fill:#acacac;fill-opacity:1;stroke:none;stroke-width:4;stroke-linecap:butt;stroke-linejoin:miter;stroke-miterlimit:4;stroke-dasharray:none;stroke-opacity:1"
       id="rect4181"
       width="100"
       height="100"
       x="-100"
       y="652.36218"
       transform="scale(-1,1)" />
  </g>
  <g
     inkscape:groupmode="layer"
     id="layer2"
     inkscape:label="Paths">
    <rect
       style="opacity:0.98999999;fill:#8b1212;fill-opacity:1;stroke:none;stroke-width:4;stroke-linecap:butt;stroke-linejoin:miter;stroke-miterlimit:4;stroke-dasharray:none;stroke-opacity:1"
       id="rect4188"
       width="100"
       height="5"
       x="100"
       y="47.500004" />
    <rect
       y="-52.5"
       x="100"
       height="5"
       width="100"
       id="rect4190"
       style="opacity:0.98999999;fill:#8b1212;fill-opacity:1;stroke:none;stroke-width:4;stroke-linecap:butt;stroke-linejoin:miter;stroke-miterlimit:4;stroke-dasharray:none;stroke-opacity:1"
       transform="matrix(0,1,-1,0,0,0)" />
    <path
       style="opacity:0.98999999;fill:none;fill-opacity:1;stroke:#8c1414;stroke-width:5;stroke-linecap:butt;stroke-linejoin:miter;stroke-miterlimit:4;stroke-dasharray:none;stroke-opacity:1"
       d="m 150,100 0,45 c 0,2.77 -2.23,5 -5,5 l -45,0"
       id="rect4198"
       inkscape:connector-curvature="0"
       sodipodi:nodetypes="cssc" />
    <path
       sodipodi:nodetypes="cssc"
       inkscape:connector-curvature="0"
       id="path4212"
       d="m 50,100 0,-44.999996 c 0,-2.77 2.23,-5 5,-5 l 45,0"
       style="opacity:0.98999999;fill:none;fill-opacity:1;stroke:#8c1414;stroke-width:5;stroke-linecap:butt;stroke-linejoin:miter;stroke-miterlimit:4;stroke-dasharray:none;stroke-opacity:1" />
    <path
       sodipodi:nodetypes="cssc"
       inkscape:connector-curvature="0"
       id="path4214"
       d="m 200,50.000004 45,0 c 2.77,0 5,2.23 5,5 L 250,100"
       style="opacity:0.98999999;fill:none;fill-opacity:1;stroke:#8c1414;stroke-width:5;stroke-linecap:butt;stroke-linejoin:miter;stroke-miterlimit:4;stroke-dasharray:none;stroke-opacity:1" />
    <path
       style="opacity:0.98999999;fill:none;fill-opacity:1;stroke:#8c1414;stroke-width:5;stroke-linecap:butt;stroke-linejoin:miter;stroke-miterlimit:4;stroke-dasharray:none;stroke-opacity:1"
       d="m 100,250 -45,0 c -2.77,0 -5,-2.23 -5,-5 l 0,-45"
       id="path4216"
       inkscape:connector-curvature="0"
       sodipodi:nodetypes="cssc" />
    <path
       style="color:#000000;font-style:normal;font-variant:normal;font-weight:normal;font-stretch:normal;font-size:medium;line-height:normal;font-family:sans-serif;text-indent:0;text-align:start;text-decoration:none;text-decoration-line:none;text-decoration-style:solid;text-decoration-color:#000000;letter-spacing:normal;word-spacing:normal;text-transform:none;direction:ltr;block-progression:tb;writing-mode:lr-tb;baseline-shift:baseline;text-anchor:start;white-space:normal;clip-rule:nonzero;display:inline;overflow:visible;visibility:visible;opacity:0.98999999;isolation:auto;mix-blend-mode:normal;color-interpolation:sRGB;color-interpolation-filters:linearRGB;solid-color:#000000;solid-opacity:1;fill:#8c1414;fill-opacity:1;fill-rule:nonzero;stroke:none;stroke-width:5;stroke-linecap:butt;stroke-linejoin:miter;stroke-miterlimit:4;stroke-dasharray:none;stroke-dashoffset:0;stroke-opacity:1;color-rendering:auto;image-rendering:auto;shape-rendering:auto;text-rendering:auto;enable-background:accumulate"
       d="m 265,150 c 0,-2.48033 -0.9459,-4.84536 -2.14648,-7.72266 -1.20059,-2.87729 -2.74195,-6.22053 -4.27149,-10.1914 C 255.52295,124.1442 252.5,113.72728 252.5,100 l -5,0 c 0,13.74123 -3.0231,24.15769 -6.08203,32.0957 -1.52947,3.96901 -3.07087,7.3084 -4.27149,10.1836 C 235.94587,145.1545 235,147.51967 235,150 c 0,8.25466 6.74534,15 15,15 8.25466,0 15,-6.74534 15,-15 z m -5,0 c 0,5.55246 -4.44754,10 -10,10 -5.55246,0 -10,-4.44754 -10,-10 0,-0.97145 0.61663,-3.05544 1.75977,-5.79297 1.14313,-2.73753 2.72673,-6.17399 4.32226,-10.31445 1.40684,-3.65079 2.7789,-7.95805 3.91992,-12.75977 1.14048,4.7956 2.5105,9.10112 3.91602,12.75 1.59546,4.142 3.1791,7.58064 4.32226,10.32031 C 259.3834,146.9428 260,149.02855 260,150 Z"
       id="path4226"
       inkscape:connector-curvature="0" />
    <path
       inkscape:connector-curvature="0"
       id="path4233"
       d="m 150,235 c -2.48033,0 -4.84536,0.9459 -7.72266,2.14648 -2.87729,1.20059 -6.22053,2.74195 -10.1914,4.27149 C 124.1442,244.47705 113.72728,247.5 100,247.5 l 0,5 c 13.74123,0 24.15769,3.0231 32.0957,6.08203 3.96901,1.52947 7.3084,3.07087 10.1836,4.27149 C 145.1545,264.05413 147.51967,265 150,265 c 8.25466,0 15,-6.74534 15,-15 0,-8.25466 -6.74534,-15 -15,-15 z m 0,5 c 5.55246,0 10,4.44754 10,10 0,5.55246 -4.44754,10 -10,10 -0.97145,0 -3.05544,-0.61663 -5.79297,-1.75977 -2.73753,-1.14313 -6.17399,-2.72673 -10.31445,-4.32226 -3.65079,-1.40684 -7.95805,-2.7789 -12.75977,-3.91992 4.7956,-1.14048 9.10112,-2.5105 12.75,-3.91602 4.142,-1.59546 7.58064,-3.1791 10.32031,-4.32226 C 146.9428,240.6166 149.02855,240 150,240 Z"
       style="color:#000000;font-style:normal;font-variant:normal;font-weight:normal;font-stretch:normal;font-size:medium;line-height:normal;font-family:sans-serif;text-indent:0;text-align:start;text-decoration:none;text-decoration-line:none;text-decoration-style:solid;text-decoration-color:#000000;letter-spacing:normal;word-spacing:normal;text-transform:none;direction:ltr;block-progression:tb;writing-mode:lr-tb;baseline-shift:baseline;text-anchor:start;white-space:normal;clip-rule:nonzero;display:inline;overflow:visible;visibility:visible;opacity:0.98999999;isolation:auto;mix-blend-mode:normal;color-interpolation:sRGB;color-interpolation-filters:linearRGB;solid-color:#000000;solid-opacity:1;fill:#8c1414;fill-opacity:1;fill-rule:nonzero;stroke:none;stroke-width:5;stroke-linecap:butt;stroke-linejoin:miter;stroke-miterlimit:4;stroke-dasharray:none;stroke-dashoffset:0;stroke-opacity:1;color-rendering:auto;image-rendering:auto;shape-rendering:auto;text-rendering:auto;enable-background:accumulate" />
    <path
       style="color:#000000;font-style:normal;font-variant:normal;font-weight:normal;font-stretch:normal;font-size:medium;line-height:normal;font-family:sans-serif;text-indent:0;text-align:start;text-decoration:none;text-decoration-line:none;text-decoration-style:solid;text-decoration-color:#000000;letter-spacing:normal;word-spacing:normal;text-transform:none;direction:ltr;block-progression:tb;writing-mode:lr-tb;baseline-shift:baseline;text-anchor:start;white-space:normal;clip-rule:nonzero;display:inline;overflow:visible;visibility:visible;opacity:0.98999999;isolation:auto;mix-blend-mode:normal;color-interpolation:sRGB;color-interpolation-filters:linearRGB;solid-color:#000000;solid-opacity:1;fill:#8c1414;fill-opacity:1;fill-rule:nonzero;stroke:none;stroke-width:5;stroke-linecap:butt;stroke-linejoin:miter;stroke-miterlimit:4;stroke-dasharray:none;stroke-dashoffset:0;stroke-opacity:1;color-rendering:auto;image-rendering:auto;shape-rendering:auto;text-rendering:auto;enable-background:accumulate"
       d="m 235,250 c 0,2.48033 0.9459,4.84536 2.14648,7.72266 1.20059,2.87729 2.74195,6.22053 4.27149,10.1914 C 244.47705,275.8558 247.5,286.27272 247.5,300 l 5,0 c 0,-13.74123 3.0231,-24.15769 6.08203,-32.0957 1.52947,-3.96901 3.07087,-7.3084 4.27149,-10.1836 C 264.05413,254.8455 265,252.48033 265,250 c 0,-8.25466 -6.74534,-15 -15,-15 -8.25466,0 -15,6.74534 -15,15 z m 5,0 c 0,-5.55246 4.44754,-10 10,-10 5.55246,0 10,4.44754 10,10 0,0.97145 -0.61663,3.05544 -1.75977,5.79297 -1.14313,2.73753 -2.72673,6.17399 -4.32226,10.31445 -1.40684,3.65079 -2.7789,7.95805 -3.91992,12.75977 -1.14048,-4.7956 -2.5105,-9.10112 -3.91602,-12.75 -1.59546,-4.142 -3.1791,-7.58064 -4.32226,-10.32031 C 240.6166,253.0572 240,250.97145 240,250 Z"
       id="path4235"
       inkscape:connector-curvature="0" />
    <path
       inkscape:connector-curvature="0"
       id="path4237"
       d="m 350,65.000003 c 2.48033,0 4.84536,-0.9459 7.72266,-2.14648 2.87729,-1.20059 6.22053,-2.74195 10.1914,-4.27149 7.94174,-3.05908 18.35866,-6.08203 32.08594,-6.08203 l 0,-5 c -13.74123,0 -24.15769,-3.0231 -32.0957,-6.08203 -3.96901,-1.52947 -7.3084,-3.07087 -10.1836,-4.27149 -2.8752,-1.20061 -5.24037,-2.14648 -7.7207,-2.14648 -8.25466,0 -15,6.74534 -15,15 0,8.25466 6.74534,15 15,15 z m 0,-5 c -5.55246,0 -10,-4.44754 -10,-10 0,-5.55246 4.44754,-10 10,-10 0.97145,0 3.05544,0.61663 5.79297,1.75977 2.73753,1.14313 6.17399,2.72673 10.31445,4.32226 3.65079,1.40684 7.95805,2.7789 12.75977,3.91992 -4.7956,1.14048 -9.10112,2.5105 -12.75,3.91602 -4.142,1.59546 -7.58064,3.1791 -10.32031,4.32226 -2.73968,1.14317 -4.82543,1.75977 -5.79688,1.75977 z"
       style="color:#000000;font-style:normal;font-variant:normal;font-weight:normal;font-stretch:normal;font-size:medium;line-height:normal;font-family:sans-serif;text-indent:0;text-align:start;text-decoration:none;text-decoration-line:none;text-decoration-style:solid;text-decoration-color:#000000;letter-spacing:normal;word-spacing:normal;text-transform:none;direction:ltr;block-progression:tb;writing-mode:lr-tb;baseline-shift:baseline;text-anchor:start;white-space:normal;clip-rule:nonzero;display:inline;overflow:visible;visibility:visible;opacity:0.98999999;isolation:auto;mix-blend-mode:normal;color-interpolation:sRGB;color-interpolation-filters:linearRGB;solid-color:#000000;solid-opacity:1;fill:#8c1414;fill-opacity:1;fill-rule:nonzero;stroke:none;stroke-width:5;stroke-linecap:butt;stroke-linejoin:miter;stroke-miterlimit:4;stroke-dasharray:none;stroke-dashoffset:0;stroke-opacity:1;color-rendering:auto;image-rendering:auto;shape-rendering:auto;text-rendering:auto;enable-background:accumulate" />
    <path
       style="color:#000000;font-style:normal;font-variant:normal;font-weight:normal;font-stretch:normal;font-size:medium;line-height:normal;font-family:sans-serif;text-indent:0;text-align:start;text-decoration:none;text-decoration-line:none;text-decoration-style:solid;text-decoration-color:#000000;letter-spacing:normal;word-spacing:normal;text-transform:none;direction:ltr;block-progression:tb;writing-mode:lr-tb;baseline-shift:baseline;text-anchor:start;white-space:normal;clip-rule:nonzero;display:inline;overflow:visible;visibility:visible;opacity:1;isolation:auto;mix-blend-mode:normal;color-interpolation:sRGB;color-interpolation-filters:linearRGB;solid-color:#000000;solid-opacity:1;fill:#8d1616;fill-opacity:1;fill-rule:evenodd;stroke:none;stroke-width:5;stroke-linecap:butt;stroke-linejoin:miter;stroke-miterlimit:4;stroke-dasharray:none;stroke-dashoffset:0;stroke-opacity:1;color-rendering:auto;image-rendering:auto;shape-rendering:auto;text-rendering:auto;enable-background:accumulate"
       d="m 300,147.5 0,5 c 5.33192,0 9.08724,1.73465 12.49805,4.50977 3.41081,2.77511 6.37085,6.66864 9.51367,10.74218 3.14281,4.07355 6.47794,8.33015 10.90234,11.63282 4.42441,3.30266 9.99476,5.5664 17.08594,5.5664 7.09118,0 12.61876,-2.26991 16.97852,-5.58008 4.35975,-3.31017 7.60977,-7.56659 10.69336,-11.63476 3.08358,-4.06817 6.00617,-7.9495 9.44726,-10.71875 C 390.56024,154.24833 394.42784,152.5 400,152.5 l 0,-5 c -6.6761,0 -11.89595,2.3077 -16.01562,5.62305 -4.11968,3.31534 -7.23115,7.54718 -10.29688,11.59179 -3.06573,4.04462 -6.07829,7.89941 -9.73242,10.67383 -3.65413,2.77442 -7.89179,4.5625 -13.95508,4.5625 -6.06329,0 -10.36891,-1.79229 -14.0957,-4.57422 -3.72679,-2.78192 -6.81725,-6.63849 -9.9336,-10.67773 -3.11635,-4.03924 -6.24883,-8.25889 -10.3164,-11.56836 C 311.58672,149.82138 306.47694,147.5 300,147.5 Z"
       id="path4241"
       inkscape:connector-curvature="0" />
    <path
       inkscape:connector-curvature="0"
       id="path4265"
       d="m 400,152.5 0,-5 c -5.33191,0 -9.08723,-1.73465 -12.49803,-4.50977 -3.41083,-2.77512 -6.37086,-6.66864 -9.51368,-10.74218 -3.1428,-4.07356 -6.47794,-8.33015 -10.90233,-11.63282 -4.42441,-3.30266 -9.99476,-5.5664 -17.08594,-5.5664 -7.09119,0 -12.61877,2.26991 -16.97852,5.58008 -4.35976,3.31017 -7.60977,7.56659 -10.69337,11.63476 -3.08358,4.06817 -6.00617,7.9495 -9.44726,10.71875 C 309.43976,145.75167 305.57217,147.5 300,147.5 l 0,5 c 6.67611,0 11.89596,-2.30771 16.01564,-5.62306 4.11967,-3.31534 7.23115,-7.54717 10.29687,-11.59178 3.06573,-4.04462 6.07829,-7.89941 9.73242,-10.67384 3.65413,-2.77441 7.89179,-4.5625 13.95508,-4.5625 6.06329,0 10.36892,1.7923 14.09571,4.57422 3.72679,2.78193 6.81725,6.63849 9.9336,10.67773 3.11635,4.03924 6.24883,8.25889 10.3164,11.56837 4.06757,3.30948 9.17735,5.63086 15.65429,5.63086 z"
       style="color:#000000;font-style:normal;font-variant:normal;font-weight:normal;font-stretch:normal;font-size:medium;line-height:normal;font-family:sans-serif;text-indent:0;text-align:start;text-decoration:none;text-decoration-line:none;text-decoration-style:solid;text-decoration-color:#000000;letter-spacing:normal;word-spacing:normal;text-transform:none;direction:ltr;block-progression:tb;writing-mode:lr-tb;baseline-shift:baseline;text-anchor:start;white-space:normal;clip-rule:nonzero;display:inline;overflow:visible;visibility:visible;opacity:1;isolation:auto;mix-blend-mode:normal;color-interpolation:sRGB;color-interpolation-filters:linearRGB;solid-color:#000000;solid-opacity:1;fill:#8d1616;fill-opacity:1;fill-rule:evenodd;stroke:none;stroke-width:5;stroke-linecap:butt;stroke-linejoin:miter;stroke-miterlimit:4;stroke-dasharray:none;stroke-dashoffset:0;stroke-opacity:1;color-rendering:auto;image-rendering:auto;shape-rendering:auto;text-rendering:auto;enable-background:accumulate" />
    <g
       id="g4285"
       transform="matrix(0,1,-1,0,607.56849,-109.61431)">
      <path
         inkscape:connector-curvature="0"
         id="path4241-1"
         d="m 309.61431,255.06849 0,5 c 5.33192,0 9.08724,1.73465 12.49805,4.50977 3.41081,2.77511 6.37085,6.66864 9.51367,10.74218 3.14281,4.07355 6.47794,8.33015 10.90234,11.63282 4.42441,3.30266 9.99476,5.5664 17.08594,5.5664 7.09118,0 12.61876,-2.26991 16.97852,-5.58008 4.35975,-3.31017 7.60977,-7.56659 10.69336,-11.63476 3.08358,-4.06817 6.00617,-7.9495 9.44726,-10.71875 3.4411,-2.76925 7.3087,-4.51758 12.88086,-4.51758 l 0,-5 c -6.6761,0 -11.89595,2.3077 -16.01562,5.62305 -4.11968,3.31534 -7.23115,7.54718 -10.29688,11.59179 -3.06573,4.04462 -6.07829,7.89941 -9.73242,10.67383 -3.65413,2.77442 -7.89179,4.5625 -13.95508,4.5625 -6.06329,0 -10.36891,-1.79229 -14.0957,-4.57422 -3.72679,-2.78192 -6.81725,-6.63849 -9.9336,-10.67773 -3.11635,-4.03924 -6.24883,-8.25889 -10.3164,-11.56836 -4.06758,-3.30948 -9.17736,-5.63086 -15.6543,-5.63086 z"
         style="color:#000000;font-style:normal;font-variant:normal;font-weight:normal;font-stretch:normal;font-size:medium;line-height:normal;font-family:sans-serif;text-indent:0;text-align:start;text-decoration:none;text-decoration-line:none;text-decoration-style:solid;text-decoration-color:#000000;letter-spacing:normal;word-spacing:normal;text-transform:none;direction:ltr;block-progression:tb;writing-mode:lr-tb;baseline-shift:baseline;text-anchor:start;white-space:normal;clip-rule:nonzero;display:inline;overflow:visible;visibility:visible;opacity:1;isolation:auto;mix-blend-mode:normal;color-interpolation:sRGB;color-interpolation-filters:linearRGB;solid-color:#000000;solid-opacity:1;fill:#8d1616;fill-opacity:1;fill-rule:evenodd;stroke:none;stroke-width:5;stroke-linecap:butt;stroke-linejoin:miter;stroke-miterlimit:4;stroke-dasharray:none;stroke-dashoffset:0;stroke-opacity:1;color-rendering:auto;image-rendering:auto;shape-rendering:auto;text-rendering:auto;enable-background:accumulate" />
      <path
         style="color:#000000;font-style:normal;font-variant:normal;font-weight:normal;font-stretch:normal;font-size:medium;line-height:normal;font-family:sans-serif;text-indent:0;text-align:start;text-decoration:none;text-decoration-line:none;text-decoration-style:solid;text-decoration-color:#000000;letter-spacing:normal;word-spacing:normal;text-transform:none;direction:ltr;block-progression:tb;writing-mode:lr-tb;baseline-shift:baseline;text-anchor:start;white-space:normal;clip-rule:nonzero;display:inline;overflow:visible;visibility:visible;opacity:1;isolation:auto;mix-blend-mode:normal;color-interpolation:sRGB;color-interpolation-filters:linearRGB;solid-color:#000000;solid-opacity:1;fill:#8d1616;fill-opacity:1;fill-rule:evenodd;stroke:none;stroke-width:5;stroke-linecap:butt;stroke-linejoin:miter;stroke-miterlimit:4;stroke-dasharray:none;stroke-dashoffset:0;stroke-opacity:1;color-rendering:auto;image-rendering:auto;shape-rendering:auto;text-rendering:auto;enable-background:accumulate"
         d="m 409.61431,260.06849 0,-5 c -5.33191,0 -9.08723,-1.73465 -12.49803,-4.50977 -3.41083,-2.77512 -6.37086,-6.66864 -9.51368,-10.74218 -3.1428,-4.07356 -6.47794,-8.33015 -10.90233,-11.63282 -4.42441,-3.30266 -9.99476,-5.5664 -17.08594,-5.5664 -7.09119,0 -12.61877,2.26991 -16.97852,5.58008 -4.35976,3.31017 -7.60977,7.56659 -10.69337,11.63476 -3.08358,4.06817 -6.00617,7.9495 -9.44726,10.71875 -3.44111,2.76925 -7.3087,4.51758 -12.88087,4.51758 l 0,5 c 6.67611,0 11.89596,-2.30771 16.01564,-5.62306 4.11967,-3.31534 7.23115,-7.54717 10.29687,-11.59178 3.06573,-4.04462 6.07829,-7.89941 9.73242,-10.67384 3.65413,-2.77441 7.89179,-4.5625 13.95508,-4.5625 6.06329,0 10.36892,1.7923 14.09571,4.57422 3.72679,2.78193 6.81725,6.63849 9.9336,10.67773 3.11635,4.03924 6.24883,8.25889 10.3164,11.56837 4.06757,3.30948 9.17735,5.63086 15.65429,5.63086 z"
         id="path4265-7"
         inkscape:connector-curvature="0" />
    </g>
  </g>
</svg>
